<?xml version="1.0" encoding="UTF-8"?>
<svg width="160px" height="35px"  version="1.1" xmlns="http://www.w3.org/2000/svg" xmlns:xlink="http://www.w3.org/1999/xlink">
    <!-- Generator: Sketch 51.3 (57544) - http://www.bohemiancoding.com/sketch -->
  <symbol id="MLS_horizontal" viewBox="0 0 160 35">
    <title>Mercado Little Spain</title>
    <g id="Symbols" stroke="none" stroke-width="1" fill-rule="evenodd">
        <g id="desktop/nav/home" transform="translate(-30.000000, -36.000000)">
            <g id="H_LOGO_RED[5]">
                <g transform="translate(30.000000, 36.000000)">
                    <path d="M0,33.4472517 L0,0.80837783 C0,0.566927936 0.211857595,0.372340426 0.474398825,0.372340426 L5.16804133,0.372340426 C5.43058256,0.372340426 5.64244015,0.566927936 5.64244015,0.80837783 L5.64244015,28.6170124 C5.64244015,28.8578416 5.85497353,29.0530498 6.11717687,29.0530498 L11.5443805,29.0530498 C11.8059081,29.0530498 12.0187793,29.2476373 12.0187793,29.4881562 L12.0187793,33.4472517 C12.0187793,33.6883912 11.8059081,33.8829787 11.5443805,33.8829787 L0.474398825,33.8829787 C0.211857595,33.8829787 0,33.6883912 0,33.4472517" id="Fill-1"></path>
                    <path d="M13.5211268,33.4714625 L13.5211268,0.783546269 C13.5211268,0.556374437 13.7348867,0.372340426 13.9979482,0.372340426 L19.0544147,0.372340426 C19.3171163,0.372340426 19.5305164,0.556374437 19.5305164,0.783546269 L19.5305164,33.4714625 C19.5305164,33.6980137 19.3171163,33.8829787 19.0544147,33.8829787 L13.9979482,33.8829787 C13.7348867,33.8829787 13.5211268,33.6980137 13.5211268,33.4714625" id="Fill-2"></path>
                    <path d="M30.7623858,15.5044873 L30.7623858,32.7281806 C30.7623858,32.9550998 30.5508126,33.1382979 30.289813,33.1382979 L25.2970414,33.1382979 C25.0360419,33.1382979 24.8241131,32.9550998 24.8241131,32.7281806 L24.8241131,15.5044873 C24.8241131,15.2784918 24.6128955,15.0952938 24.351896,15.0952938 L21.5065033,15.0952938 C21.2440815,15.0952938 21.0328638,14.9117878 21.0328638,14.6854844 L21.0328638,10.462693 C21.0328638,10.2366974 21.2440815,10.0531915 21.5065033,10.0531915 L34.0807067,10.0531915 C34.3424174,10.0531915 34.5539906,10.2366974 34.5539906,10.462693 L34.5539906,14.6854844 C34.5539906,14.9117878 34.3424174,15.0952938 34.0807067,15.0952938 L31.2349585,15.0952938 C30.9746701,15.0952938 30.7623858,15.2784918 30.7623858,15.5044873" id="Fill-3"></path>
                    <path d="M45.0341181,15.5463612 L45.0341181,32.6863068 C45.0341181,32.9360103 44.8005294,33.1382979 44.5128988,33.1382979 L39.6178456,33.1382979 C39.3298594,33.1382979 39.0966262,32.9360103 39.0966262,32.6863068 L39.0966262,15.5463612 C39.0966262,15.2975813 38.8637485,15.0943701 38.5750513,15.0943701 L35.8267392,15.0943701 C35.5394641,15.0943701 35.3051643,14.8926983 35.3051643,14.6429948 L35.3051643,10.5045668 C35.3051643,10.255787 35.5394641,10.0531915 35.8267392,10.0531915 L48.3040051,10.0531915 C48.5919912,10.0531915 48.8262911,10.255787 48.8262911,10.5045668 L48.8262911,14.6429948 C48.8262911,14.8926983 48.5919912,15.0943701 48.3040051,15.0943701 L45.5549819,15.0943701 C45.2669958,15.0943701 45.0341181,15.2975813 45.0341181,15.5463612" id="Fill-4"></path>
                    <path d="M51.0798122,33.4984625 L51.0798122,0.756546338 C51.0798122,0.544891708 51.2670143,0.372340426 51.4984826,0.372340426 L56.3042372,0.372340426 C56.5357055,0.372340426 56.7229075,0.544891708 56.7229075,0.756546338 L56.7229075,28.6682679 C56.7229075,28.8805433 56.9101096,29.0524739 57.14124,29.0524739 L62.6799212,29.0524739 C62.9113895,29.0524739 63.0985915,29.2244044 63.0985915,29.4373005 L63.0985915,33.4984625 C63.0985915,33.7104274 62.9113895,33.8829787 62.6799212,33.8829787 L51.4984826,33.8829787 C51.2670143,33.8829787 51.0798122,33.7104274 51.0798122,33.4984625" id="Fill-5"></path>
                    <path d="M64.600939,33.454696 L64.600939,0.799692074 C64.600939,0.563515891 64.8088601,0.372340426 65.0644787,0.372340426 L76.1571863,0.372340426 C76.4121331,0.372340426 76.6197183,0.563515891 76.6197183,0.799692074 L76.6197183,4.77403137 C76.6197183,5.0105179 76.4121331,5.20231407 76.1571863,5.20231407 L70.6739814,5.20231407 C70.4186986,5.20231407 70.2104416,5.39379988 70.2104416,5.63028641 L70.2104416,13.9315224 C70.2104416,14.1683192 70.4186986,14.3604258 70.6739814,14.3604258 L74.0863729,14.3604258 C74.3429992,14.3604258 74.5505844,14.5519116 74.5505844,14.7883981 L74.5505844,18.510423 C74.5505844,18.7469096 74.3429992,18.9387057 74.0863729,18.9387057 L70.6739814,18.9387057 C70.4186986,18.9387057 70.2104416,19.1295708 70.2104416,19.3669884 L70.2104416,28.4729613 C70.2104416,28.7097582 70.4186986,28.9006233 70.6739814,28.9006233 L76.1571863,28.9006233 C76.4121331,28.9006233 76.6197183,29.0927299 76.6197183,29.3295267 L76.6197183,33.454696 C76.6197183,33.6911826 76.4121331,33.8829787 76.1571863,33.8829787 L65.0644787,33.8829787 C64.8088601,33.8829787 64.600939,33.6911826 64.600939,33.454696" id="Fill-6"></path>
                    <path d="M24.5598214,7.81914894 C24.4244283,7.81914894 24.3136215,7.71938774 24.3136215,7.59711944 L24.3136215,2.149793 L24.1405069,3.84907903 L23.634635,7.62358049 C23.6191422,7.73550769 23.5137242,7.81914894 23.390119,7.81914894 L22.9869708,7.81914894 C22.8616816,7.81914894 22.7559268,7.73337864 22.7417812,7.62114729 L22.295186,3.84907903 L22.1469945,2.149793 L22.1469945,7.59711944 C22.1469945,7.71938774 22.0358508,7.81914894 21.9001209,7.81914894 L21.278727,7.81914894 C21.1423235,7.81914894 21.0328638,7.71938774 21.0328638,7.59711944 L21.0328638,0.594369923 C21.0328638,0.471189174 21.1423235,0.372340426 21.278727,0.372340426 L22.4891821,0.372340426 C22.6124505,0.372340426 22.7168581,0.454156775 22.7330245,0.563650773 L23.1503182,3.30191319 L23.3234329,4.98994567 L23.4844227,3.30191319 L23.8653422,0.565779823 C23.8811718,0.455373375 23.986253,0.372340426 24.1091846,0.372340426 L25.2933693,0.372340426 C25.4297729,0.372340426 25.5399061,0.471189174 25.5399061,0.594369923 L25.5399061,7.59711944 C25.5399061,7.71938774 25.4297729,7.81914894 25.2933693,7.81914894 L24.5598214,7.81914894" id="Fill-7"></path>
                    <path d="M27.0422535,7.59712851 L27.0422535,0.594664992 C27.0422535,0.471793412 27.1347668,0.372340426 27.2491314,0.372340426 L29.0883292,0.372340426 C29.20241,0.372340426 29.2957746,0.471793412 29.2957746,0.594664992 L29.2957746,1.2236215 C29.2957746,1.3458848 29.20241,1.4462502 29.0883292,1.4462502 L28.3238177,1.4462502 C28.2091694,1.4462502 28.1169399,1.54539905 28.1169399,1.66827063 L28.1169399,3.25891014 C28.1169399,3.38147759 28.2091694,3.48093057 28.3238177,3.48093057 L28.6913168,3.48093057 C28.8065327,3.48093057 28.8993297,3.58007942 28.8993297,3.70325514 L28.8993297,4.27625033 C28.8993297,4.39912191 28.8065327,4.49827076 28.6913168,4.49827076 L28.3238177,4.49827076 C28.2091694,4.49827076 28.1169399,4.59802789 28.1169399,4.72089947 L28.1169399,6.49006774 C28.1169399,6.61293932 28.2091694,6.71208817 28.3238177,6.71208817 L29.0883292,6.71208817 C29.20241,6.71208817 29.2957746,6.81184529 29.2957746,6.93471687 L29.2957746,7.59712851 C29.2957746,7.71939181 29.20241,7.81914894 29.0883292,7.81914894 L27.2491314,7.81914894 C27.1347668,7.81914894 27.0422535,7.71939181 27.0422535,7.59712851" id="Fill-8"></path>
                    <path d="M32.7974189,7.81914894 C32.6149866,7.81914894 32.5118051,7.091956 32.5118051,6.66737994 L32.5118051,5.04693494 C32.5118051,4.86718964 32.4210551,4.71055879 32.2606887,4.71055879 L31.9750748,4.71055879 L31.9750748,7.59712851 C31.9750748,7.71939181 31.8731365,7.81914894 31.7485106,7.81914894 L31.0256186,7.81914894 C30.8994388,7.81914894 30.7981221,7.71939181 30.7981221,7.59712851 L30.7981221,0.594360855 C30.7981221,0.471489275 30.8994388,0.372340426 31.0256186,0.372340426 L32.3862469,0.372340426 C32.9686629,0.372340426 33.619763,0.707500033 33.619763,1.68074027 L33.619763,3.38086931 C33.619763,3.64029866 33.5109873,3.86870598 33.3266902,4.05149266 C33.2356295,4.14212566 33.2244411,4.28659101 33.3198529,4.37357436 C33.5212433,4.55666517 33.6542604,4.78568077 33.6542604,5.06883285 L33.6542604,6.57857177 C33.6542604,7.04785605 33.7235661,7.42863629 33.8028169,7.78599794 L33.8028169,7.81914894 L32.7974189,7.81914894 Z M32.4776184,1.73639745 C32.4776184,1.51316047 32.4092452,1.42404816 32.2715662,1.42404816 L31.9750748,1.42404816 L31.9750748,3.72697787 L32.2715662,3.72697787 C32.4092452,3.72697787 32.4776184,3.64881452 32.4776184,3.41371617 L32.4776184,1.73639745 Z" id="Fill-9"></path>
                    <path d="M36.1402073,7.81914894 C35.2580385,7.81914894 34.5539906,7.22240032 34.5539906,6.33214943 L34.5539906,1.85904466 C34.5539906,0.980309447 35.2580385,0.372340426 36.1402073,0.372340426 C37.0467096,0.372340426 37.5586854,0.969089038 37.5586854,1.82656453 L37.5586854,2.84880288 C37.5586854,2.96779827 37.4532405,3.06405757 37.3215154,3.06405757 L36.7469214,3.06405757 C36.6158452,3.06405757 36.5100758,2.96779827 36.5100758,2.84880288 L36.5100758,1.79437967 C36.5100758,1.5992036 36.4020353,1.45747212 36.1518874,1.45747212 C35.9010906,1.45747212 35.8066768,1.5992036 35.8066768,1.79437967 L35.8066768,6.39770024 C35.8066768,6.59199048 35.9010906,6.7334267 36.1518874,6.7334267 C36.4020353,6.7334267 36.5100758,6.59199048 36.5100758,6.39770024 L36.5100758,5.34327703 C36.5100758,5.22339582 36.6158452,5.12713652 36.7469214,5.12713652 L37.3215154,5.12713652 C37.4532405,5.12713652 37.5586854,5.22339582 37.5586854,5.34327703 L37.5586854,6.36433428 C37.5586854,7.23214436 37.0467096,7.81914894 36.1402073,7.81914894" id="Fill-10"></path>
                    <path d="M39.4118888,7.60929401 L39.3673965,6.7552757 C39.3607378,6.63757446 39.263884,6.54511664 39.1464488,6.54511664 L38.8797981,6.54511664 C38.7653896,6.54511664 38.6691411,6.6330124 38.6594557,6.74736812 L38.5840913,7.61720159 C38.5734979,7.73186145 38.4781575,7.81914894 38.3634462,7.81914894 L37.779902,7.81914894 C37.6479387,7.81914894 37.5450315,7.70357666 37.5601649,7.57158095 L38.387357,0.569117436 C38.4006744,0.456890671 38.4945015,0.372340426 38.6064888,0.372340426 L39.5154013,0.372340426 C39.6273885,0.372340426 39.7221236,0.456890671 39.7357437,0.569117436 L40.5617251,7.57158095 C40.5777666,7.70357666 40.475162,7.81914894 40.3425934,7.81914894 L39.6328365,7.81914894 C39.5147959,7.81914894 39.4173368,7.72669111 39.4118888,7.60929401 M39.0668471,2.39668012 L38.8104871,5.24036644 C38.7995911,5.37084146 39.260252,5.37449111 39.251172,5.24644919 L39.0668471,2.39668012" id="Fill-11"></path>
                    <path d="M42.9042084,7.81914894 L41.5461003,7.81914894 C41.418559,7.81914894 41.314554,7.71939181 41.314554,7.59712851 L41.314554,0.595273268 C41.314554,0.471489275 41.418559,0.372340426 41.5461003,0.372340426 L42.9042084,0.372340426 C43.6408309,0.372340426 44.3192488,0.786271664 44.3192488,1.82642217 L44.3192488,6.41038369 C44.3192488,7.45023006 43.6408309,7.81914894 42.9042084,7.81914894 M43.1150809,1.82642217 C43.1150809,1.56881764 43.0104398,1.44564193 42.7992492,1.44564193 L42.51904,1.44564193 L42.51904,6.75740466 L42.7992492,6.75740466 C43.0104398,6.75740466 43.1150809,6.63453308 43.1150809,6.36628374 L43.1150809,1.82642217" id="Fill-12"></path>
                    <path d="M47.324258,7.81914894 C46.4921355,7.81914894 45.8215962,7.233279 45.8215962,6.3648095 L45.8215962,1.82579397 C45.8215962,0.968841068 46.4921355,0.372340426 47.324258,0.372340426 C48.1676977,0.372340426 48.8262911,0.968841068 48.8262911,1.82579397 L48.8262911,6.3648095 C48.8262911,7.233279 48.1676977,7.81914894 47.324258,7.81914894 M47.6131589,1.75049315 C47.6131589,1.5659323 47.4974728,1.45726288 47.324258,1.45726288 C47.1507289,1.45726288 47.0350428,1.5659323 47.0350428,1.75049315 L47.0350428,6.44070092 C47.0350428,6.62555706 47.1507289,6.73363589 47.324258,6.73363589 C47.4974728,6.73363589 47.6131589,6.62555706 47.6131589,6.44070092 L47.6131589,1.75049315" id="Fill-13"></path>
                    <path d="M93.9228312,34.6276596 C89.714492,34.6276596 87.1361502,32.1308094 87.1361502,27.6864899 L87.1361502,24.5977617 C87.1361502,24.373267 87.32822,24.1909612 87.5650628,24.1909612 L91.4427954,24.1909612 C91.680287,24.1909612 91.8717079,24.373267 91.8717079,24.5977617 L91.8717079,28.0868235 C91.8717079,29.2838212 92.4505127,30.0838726 93.6593842,30.0838726 C94.8176427,30.0838726 95.3957986,29.3343248 95.3957986,28.0868235 C95.3957986,25.0898642 94.1333942,22.7432931 92.081622,19.3977355 C90.0298498,16.3016166 87.2419184,11.707326 87.2419184,7.86227518 C87.2419184,3.71759004 89.504578,0.372340426 94.2391623,0.372340426 C97.9222296,0.372340426 100.394154,2.91907838 100.394154,7.31351012 L100.394154,10.5522094 C100.394154,10.7767042 100.20176,10.9580861 99.9652419,10.9580861 L96.1400689,10.9580861 C95.9035506,10.9580861 95.7118052,10.7767042 95.7118052,10.5522094 L95.7118052,6.8127851 C95.7118052,5.71494704 95.0804408,5.11567835 94.2391623,5.11567835 C93.3446753,5.11567835 92.6068938,5.66505931 92.6068938,6.8127851 C92.6068938,10.6587597 93.817712,12.0063444 96.027163,15.7023479 C98.3417333,19.4479312 100.657277,23.3921415 100.657277,27.2870801 C100.657277,32.4806394 97.342776,34.6276596 93.9228312,34.6276596" id="Fill-14"></path>
                    <path d="M112.820645,20.8510121 L110.403341,20.8510121 C110.212377,20.8510121 110.058253,20.9925054 110.058253,21.1672 L110.058253,33.5661703 C110.058253,33.7414854 109.90413,33.8829787 109.713504,33.8829787 L104.758571,33.8829787 C104.567269,33.8829787 104.413146,33.7414854 104.413146,33.5661703 L104.413146,0.688838579 C104.413146,0.513833718 104.567269,0.372340426 104.758571,0.372340426 L112.820645,0.372340426 C115.726006,0.372340426 118.685446,1.88160221 118.685446,6.35974078 L118.685446,14.8629912 C118.685446,19.2908624 115.726006,20.8510121 112.820645,20.8510121 M113.260032,6.51085314 C113.260032,5.50426489 112.93083,5.10150548 112.273439,5.10150548 L110.403341,5.10150548 C110.212377,5.10150548 110.058253,5.24299877 110.058253,5.41862422 L110.058253,16.1569101 C110.058253,16.3309841 110.212377,16.4734082 110.403341,16.4734082 L112.273439,16.4734082 C112.93083,16.4734082 113.260032,16.0706488 113.260032,15.0646812 L113.260032,6.51085314" id="Fill-15"></path>
                    <path d="M128.429654,33.5872647 L128.119778,28.4425229 C128.110172,28.2771341 127.952209,28.1468089 127.761516,28.1468089 L124.910367,28.1468089 C124.72501,28.1468089 124.569894,28.2709281 124.553884,28.4316625 L124.034458,33.5984354 C124.018093,33.7594801 123.863688,33.8829787 123.677976,33.8829787 L119.04299,33.8829787 C118.82846,33.8829787 118.663027,33.7194516 118.687931,33.5342037 L123.160685,0.647574799 C123.181675,0.490874282 123.334657,0.372340426 123.5161,0.372340426 L129.62967,0.372340426 C129.811113,0.372340426 129.964095,0.490874282 129.984729,0.647574799 L134.457483,33.5342037 C134.483099,33.7194516 134.316954,33.8829787 134.102424,33.8829787 L128.787916,33.8829787 C128.596867,33.8829787 128.440327,33.7529638 128.429654,33.5872647 M126.187229,13.4712625 L125.194272,23.0262704 C125.17506,23.2093463 125.340138,23.367288 125.550755,23.367288 L127.2581,23.367288 C127.464803,23.367288 127.629169,23.2149316 127.614938,23.0349588 L126.900194,13.4790199 C126.871733,13.0948709 126.227075,13.0877341 126.187229,13.4712625" id="Fill-16"></path>
                    <path d="M135.962441,33.546929 L135.962441,0.70745922 C135.962441,0.522212998 136.136225,0.372340426 136.352105,0.372340426 L141.582887,0.372340426 C141.798047,0.372340426 141.971831,0.522212998 141.971831,0.70745922 L141.971831,33.546929 C141.971831,33.7321753 141.798047,33.8829787 141.582887,33.8829787 L136.352105,33.8829787 C136.136225,33.8829787 135.962441,33.7321753 135.962441,33.546929" id="Fill-17"></path>
                    <path d="M155.623094,33.8829787 C155.474309,33.8829787 155.345339,33.7892704 155.309738,33.6558448 L151.156514,17.1591542 C151.063481,16.8190739 150.519726,16.8817529 150.519726,17.2326935 L150.519726,33.5835466 C150.519726,33.7489324 150.374971,33.8829787 150.196967,33.8829787 L146.050795,33.8829787 C145.87279,33.8829787 145.7277,33.7489324 145.7277,33.5835466 L145.7277,0.670841625 C145.7277,0.505455825 145.87279,0.372340426 146.050795,0.372340426 L150.805206,0.372340426 C150.957014,0.372340426 151.08867,0.46977221 151.120913,0.606611117 L154.799905,16.4526187 C154.832819,16.6304162 155.26171,16.6378632 155.26171,16.4526187 L155.26171,0.670841625 C155.26171,0.505455825 155.40613,0.372340426 155.58447,0.372340426 L159.676904,0.372340426 C159.855917,0.372340426 160,0.505455825 160,0.670841625 L160,33.5835466 C160,33.7489324 159.855917,33.8829787 159.676904,33.8829787 L155.623094,33.8829787" id="Fill-18"></path>
                </g>
            </g>
        </g>
    </g>
  </symbol>
  <symbol id="MLS_square" viewBox="0 0 88 92">
    <!-- Generator: Sketch 51.3 (57544) - http://www.bohemiancoding.com/sketch -->
    <title>Mercado Little Spain</title>
    <desc>Created with Sketch.</desc>
    <defs></defs>
    <g id="Symbols" stroke="none" stroke-width="1" fill-rule="evenodd">
        <g id="icons/logos/white">
            <g id="lightbulgMesa-de-trabajo-5">
                <path d="M0.102116041,42.2360912 L0.102116041,0.812117264 C0.102116041,0.505932038 0.350880692,0.25771987 0.65774744,0.25771987 L6.14197952,0.25771987 C6.28906744,0.257717702 6.43008761,0.316222719 6.53381223,0.420279446 C6.63753685,0.524336173 6.6954069,0.665358183 6.69460751,0.812117264 L6.69460751,36.1077524 C6.69460534,36.2545137 6.75324058,36.3952207 6.85752892,36.4987149 C6.96181726,36.6022092 7.10315316,36.6599507 7.25023891,36.6591531 L12.9897611,36.6591531 C13.136849,36.6591509 13.2778692,36.7176559 13.3815938,36.8217127 C13.4853184,36.9257694 13.5431885,37.0667914 13.5423891,37.2135505 L13.5423891,42.2360912 C13.5431885,42.3828503 13.4853184,42.5238723 13.3815938,42.627929 C13.2778692,42.7319857 13.136849,42.7904908 12.9897611,42.7904886 L0.65774744,42.7904886 C0.350880692,42.7904886 0.102116041,42.5422764 0.102116041,42.2360912" id="Path"></path>
                <path d="M15.4645734,42.2690554 L15.4645734,0.779153094 C15.4645734,0.640860405 15.5196322,0.508231824 15.6176376,0.410444125 C15.7156429,0.312656427 15.8485667,0.25771987 15.9871672,0.25771987 L21.534471,0.25771987 C21.8230916,0.25771987 22.0570648,0.491173476 22.0570648,0.779153094 L22.0570648,42.2690554 C22.0570648,42.4073481 22.002006,42.5399766 21.9040006,42.6377643 C21.8059953,42.735552 21.6730715,42.7904886 21.534471,42.7904886 L15.9871672,42.7904886 C15.6985466,42.7904886 15.4645734,42.557035 15.4645734,42.2690554" id="Path"></path>
                <path d="M35.3711945,20.2310098 L35.3711945,42.2540717 C35.3711945,42.5437063 35.1358766,42.7785016 34.8455973,42.7785016 L29.3012969,42.7785016 C29.1621745,42.7785039 29.0287935,42.7231562 28.9307013,42.6247194 C28.8326092,42.5262826 28.7779035,42.3928828 28.7787031,42.2540717 L28.7787031,20.2310098 C28.7770623,19.942056 28.5427028,19.708217 28.2531058,19.7065798 L25.0935154,19.7065798 C24.9535964,19.7065821 24.8194515,19.6509186 24.7207961,19.5519198 C24.6221407,19.452921 24.5671186,19.3187591 24.5679181,19.1791531 L24.5679181,13.7850163 C24.5679181,13.4953816 24.803236,13.2605863 25.0935154,13.2605863 L39.0443686,13.2605863 C39.334648,13.2605863 39.5699659,13.4953816 39.5699659,13.7850163 L39.5699659,19.1791531 C39.5699659,19.4687878 39.334648,19.7035831 39.0443686,19.7035831 L35.8937884,19.7035831 C35.6046826,19.7052315 35.3711898,19.9395446 35.3711945,20.228013" id="Path"></path>
                <path d="M52.0761775,20.2849511 L52.0761775,42.2121173 C52.0761775,42.5315429 51.8166554,42.7904886 51.4965188,42.7904886 L46.0603413,42.7904886 C45.906881,42.7904907 45.7597495,42.7294598 45.6515189,42.6209072 C45.5432883,42.5123545 45.4828867,42.3652347 45.483686,42.2121173 L45.483686,20.2849511 C45.4820435,19.9662068 45.2234812,19.7082186 44.9040273,19.7065798 L41.8525597,19.7065798 C41.6985796,19.7073821 41.5506735,19.6467044 41.4417916,19.5380643 C41.3329097,19.4294243 41.2720969,19.2818466 41.272901,19.1282085 L41.272901,13.8359609 C41.2720969,13.6823227 41.3329097,13.5347451 41.4417916,13.426105 C41.5506735,13.317465 41.6985796,13.2567873 41.8525597,13.2575896 L55.7043003,13.2575896 C55.8582805,13.2567873 56.0061866,13.317465 56.1150685,13.426105 C56.2239504,13.5347451 56.2847631,13.6823227 56.283959,13.8359609 L56.283959,19.1282085 C56.2847631,19.2818466 56.2239504,19.4294243 56.1150685,19.5380643 C56.0061866,19.6467044 55.8582805,19.7073821 55.7043003,19.7065798 L52.6528328,19.7065798 C52.3338696,19.7082288 52.0761732,19.9666921 52.0761775,20.2849511" id="Path"></path>
                <path d="M58.7948123,42.3020195 L58.7948123,0.746188925 C58.7948123,0.476414915 59.0139941,0.25771987 59.2843686,0.25771987 L64.8977474,0.25771987 C65.0278311,0.256916164 65.1528202,0.308121593 65.244805,0.399902111 C65.3367898,0.491682629 65.3881092,0.61639416 65.3873038,0.746188925 L65.3873038,36.1736808 C65.3889553,36.4422838 65.6076542,36.6591581 65.8768601,36.6591531 L71.7485324,36.6591531 C71.8780963,36.6591506 72.0023103,36.7107096 72.0936435,36.8024025 C72.1849767,36.8940954 72.2358851,37.0183484 72.2350853,37.1476221 L72.2350853,42.3020195 C72.2358851,42.4312932 72.1849767,42.5555463 72.0936435,42.6472392 C72.0023103,42.7389321 71.8780963,42.7904911 71.7485324,42.7904886 L59.2843686,42.7904886 C59.0139941,42.7904886 58.7948123,42.5717936 58.7948123,42.3020195" id="Path"></path>
                <path d="M74.1572696,42.2540717 L74.1572696,0.800130293 C74.1572696,0.656274105 74.2145435,0.518309891 74.3164916,0.416588205 C74.4184397,0.314866518 74.556711,0.25771987 74.7008874,0.25771987 L87.4383618,0.25771987 C87.5825382,0.25771987 87.7208095,0.314866518 87.8227576,0.416588205 C87.9247057,0.518309891 87.9819795,0.656274105 87.9819795,0.800130293 L87.9819795,5.84664495 C87.9819795,6.14620996 87.7385936,6.38905537 87.4383618,6.38905537 L81.2933788,6.38905537 C81.1492024,6.38905537 81.0109311,6.44620202 80.908983,6.54792371 C80.8070349,6.6496454 80.7497611,6.78760961 80.7497611,6.9314658 L80.7497611,17.468013 C80.7497566,17.7680667 80.9926619,18.0117715 81.2933788,18.0134202 L84.996587,18.0134202 C85.2968188,18.0134202 85.5402048,18.2562656 85.5402048,18.5558306 L85.5402048,23.2786971 C85.5410042,23.4230718 85.4840835,23.5618071 85.3820486,23.6641779 C85.2800137,23.7665486 85.1412853,23.8241064 84.996587,23.8241042 L81.2933788,23.8241042 C80.993147,23.8241042 80.7497611,24.0669497 80.7497611,24.3665147 L80.7497611,35.9249511 C80.7497611,36.2245161 80.993147,36.4673616 81.2933788,36.4673616 L87.4383618,36.4673616 C87.7385936,36.4673616 87.9819795,36.710207 87.9819795,37.009772 L87.9819795,42.2540717 C87.9819795,42.5536367 87.7385936,42.7964821 87.4383618,42.7964821 L74.7008874,42.7964821 C74.4006556,42.7964821 74.1572696,42.5536367 74.1572696,42.2540717" id="Path"></path>
                <path d="M9.1243686,91.8231922 C3.7512628,91.8231922 0.456518771,88.4728339 0.456518771,82.5063192 L0.456518771,78.3618241 C0.456516575,78.2166524 0.514518953,78.0774699 0.617680807,77.9750996 C0.72084266,77.8727293 0.860650717,77.8156193 1.00614334,77.8164169 L5.95877133,77.8164169 C6.26066186,77.8164169 6.50539249,78.060604 6.50539249,78.3618241 L6.50539249,83.0457329 C6.50539249,84.651987 7.24423208,85.7248208 8.78798635,85.7248208 C10.2656655,85.7248208 11.0045051,84.7179153 11.0045051,83.0457329 C11.0045051,79.0211075 9.39467577,75.8715309 6.77269625,71.3794137 C4.15372014,67.2259283 0.600682594,61.0586319 0.600682594,55.8952443 C0.600682594,50.3452769 3.48095563,45.8501629 9.52682594,45.8501629 C14.2301706,45.8501629 17.3867577,49.2694463 17.3867577,55.1670358 L17.3867577,59.5153094 C17.3875622,59.660205 17.3302303,59.7993984 17.2275441,59.9018566 C17.1248578,60.0043148 16.9853546,60.0615194 16.8401365,60.0607166 L11.956587,60.0607166 C11.8110944,60.0615143 11.6712863,60.0044042 11.5681245,59.9020339 C11.4649626,59.7996637 11.4069603,59.6604811 11.4069625,59.5153094 L11.4069625,54.4867752 C11.4069625,53.0123779 10.6020478,52.2092508 9.52682594,52.2092508 C8.38552901,52.2092508 7.44546075,52.9464495 7.44546075,54.4867752 C7.44546075,59.6501629 8.98921502,61.4601954 11.8124232,66.4198046 C14.7677816,71.4483388 17.7231399,76.7435831 17.7231399,81.9699023 C17.7231399,88.9433225 13.4913311,91.8231922 9.1243686,91.8231922" id="Path"></path>
                <path d="M30.2653925,73.7917915 L28.2050512,73.7917915 C27.971169,73.7917915 27.78157,73.9809695 27.78157,74.2143322 L27.78157,90.7323779 C27.78157,90.9657406 27.591971,91.1549186 27.3580887,91.1549186 L21.2851877,91.1549186 C21.0513055,91.1549186 20.8617065,90.9657406 20.8617065,90.7323779 L20.8617065,46.931987 C20.8633569,46.6997953 21.0524734,46.5124372 21.2851877,46.512443 L30.2653925,46.512443 C33.8274403,46.512443 37.4555631,48.5232573 37.4555631,54.4867752 L37.4555631,65.8174593 C37.4555631,71.7150489 33.8274403,73.7917915 30.2653925,73.7917915 Z M30.8030034,54.6905537 C30.8030034,53.348013 30.4005461,52.8115961 29.6016382,52.8115961 L28.211058,52.8115961 C28.0987438,52.8115961 27.9910297,52.8561136 27.9116116,52.9353554 C27.8321934,53.0145972 27.7875768,53.122072 27.7875768,53.2341368 L27.7875768,67.5405863 C27.7875768,67.7739491 27.9771758,67.963127 28.211058,67.963127 L29.6016382,67.963127 C30.4065529,67.963127 30.8030034,67.4267101 30.8030034,66.0841694 L30.8030034,54.6905537 Z" id="Shape" fill-rule="nonzero"></path>
                <path d="M49.1268259,90.7593485 L48.7664164,83.9087948 C48.7536686,83.6881544 48.5704404,83.5158552 48.348942,83.5162215 L45.0271672,83.5162215 C44.8105661,83.5155339 44.6299605,83.6813742 44.6126962,83.8968078 L44.0120137,90.789316 C43.9918977,91.0045434 43.8111809,91.1692921 43.5945392,91.1699023 L38.1883959,91.1699023 C38.0695477,91.1699462 37.9563989,91.1190822 37.8776904,91.0302301 C37.7989818,90.9413781 37.7622876,90.8230882 37.7769283,90.7054072 L42.9848464,46.8930293 C43.0093502,46.6835344 43.1879359,46.5260048 43.3993174,46.5274267 L50.5174061,46.5274267 C50.7287876,46.5260048 50.9073734,46.6835344 50.9318771,46.8930293 L56.1397952,90.7054072 C56.1534989,90.8234036 56.1160619,90.9416246 56.036898,91.0303431 C55.957734,91.1190617 55.8443746,91.1698373 55.7253242,91.1699023 L49.556314,91.1699023 C49.3337161,91.1701841 49.1500494,90.9961541 49.1388396,90.7743322 M46.5258703,63.9774593 L45.3515358,76.6926384 C45.3414119,76.8092 45.3808844,76.9246361 45.4603001,77.0107162 C45.5397157,77.0967963 45.6517521,77.1455835 45.7690102,77.1451466 L47.7542662,77.1451466 C47.8693114,77.1445617 47.9790153,77.0966322 48.0574732,77.0126758 C48.1359311,76.9287194 48.1761878,76.8161788 48.1687372,76.7016287 L47.3367918,63.9714658 C47.3184153,63.755875 47.1376698,63.5902179 46.9208191,63.5902179 C46.7039684,63.5902179 46.5232229,63.755875 46.5048464,63.9714658" id="Shape" fill-rule="nonzero"></path>
                <path d="M58.7557679,90.7084039 L58.7557679,46.9559609 C58.7557679,46.8375379 58.802916,46.7239651 58.8868401,46.6402274 C58.9707643,46.5564896 59.0845898,46.5094463 59.2032765,46.5094463 L65.2281229,46.5094463 C65.3468095,46.5094463 65.4606351,46.5564896 65.5445592,46.6402274 C65.6284833,46.7239651 65.6756314,46.8375379 65.6756314,46.9559609 L65.6756314,90.7084039 C65.6756314,90.9550071 65.475275,91.1549186 65.2281229,91.1549186 L59.2032765,91.1549186 C58.9561243,91.1549186 58.7557679,90.9550071 58.7557679,90.7084039" id="Path"></path>
                <path d="M82.5938567,91.1549186 C82.4119913,91.1548327 82.2535083,91.0312928 82.2094198,90.8552443 L77.2447782,70.9808469 L76.4849147,67.9841042 C76.4358818,67.7891376 76.2490172,67.6611144 76.0490445,67.6854843 C75.8490717,67.7098542 75.6985821,67.8789895 75.6980205,68.08 L75.6980205,90.7623453 C75.6980267,90.9813026 75.5210085,91.1592658 75.30157,91.1609121 L70.1957679,91.1609121 C69.9758365,91.1592804 69.7979492,90.9817882 69.796314,90.7623453 L69.796314,46.908013 C69.797964,46.6890619 69.9763232,46.5124368 70.1957679,46.512443 L76.05843,46.512443 C76.2425303,46.5097514 76.4042583,46.6338813 76.4488737,46.8121173 L80.7918089,66.5516612 L81.3474403,69.1288599 C81.3905538,69.3279526 81.5771793,69.4625749 81.7801725,69.4410114 C81.9831657,69.419448 82.1372013,69.2486381 82.1373379,69.0449511 L82.1373379,46.908013 C82.1373379,46.6895457 82.3148348,46.512443 82.5337884,46.512443 L87.5825256,46.512443 C87.6881902,46.5116443 87.7898023,46.5529674 87.864802,46.6272379 C87.9398018,46.7015084 87.9819826,46.80258 87.9819795,46.908013 L87.9819795,90.7563518 C87.9819795,90.9764741 87.8031379,91.1549186 87.5825256,91.1549186 L82.5938567,91.1549186 Z" id="Path"></path>
                <path d="M29.1030717,10.0630619 C28.9371978,10.0630619 28.8027304,9.92889315 28.8027304,9.76338762 L28.8027304,2.72104235 L28.5984983,4.92065147 L27.9978157,9.80833876 C27.9753594,9.95608958 27.8472376,10.0647512 27.6974744,10.0630619 L27.2259386,10.0630619 C27.0751877,10.0645423 26.9466961,9.954285 26.9255973,9.80534202 L26.4030034,4.92065147 L26.2288055,2.72104235 L26.2288055,9.77537459 C26.2288055,9.94088012 26.0943381,10.0750489 25.9284642,10.0750489 L25.1986348,10.0750489 C25.0327609,10.0750489 24.8982935,9.94088012 24.8982935,9.77537459 L24.8982935,0.704234528 C24.8982935,0.538729 25.0327609,0.404560261 25.1986348,0.404560261 L26.6192491,0.404560261 C26.767071,0.402415814 26.8944737,0.507925156 26.9195904,0.653289902 L27.4091468,4.19843648 L27.6103754,6.38605863 L27.7995904,4.19843648 L28.247099,0.656286645 C28.2699095,0.515243072 28.3893363,0.409879117 28.5324232,0.404560261 L29.92,0.404560261 C30.0858739,0.404560261 30.2203413,0.538729 30.2203413,0.704234528 L30.2203413,9.77537459 C30.2203413,9.94088012 30.0858739,10.0750489 29.92,10.0750489 L29.1030717,10.0630619 Z" id="Path"></path>
                <path d="M31.0943345,9.77537459 L31.0943345,0.704234528 C31.0943345,0.538729 31.2288018,0.404560261 31.3946758,0.404560261 L33.9385666,0.404560261 C34.1044405,0.404560261 34.2389078,0.538729 34.2389078,0.704234528 L34.2389078,1.51934853 C34.2389078,1.68485406 34.1044405,1.8190228 33.9385666,1.8190228 L32.8753584,1.8190228 C32.7094844,1.8190228 32.5750171,1.95319154 32.5750171,2.11869707 L32.5750171,4.18045603 C32.5750171,4.34596155 32.7094844,4.48013029 32.8753584,4.48013029 L33.3859386,4.48013029 C33.5518125,4.48013029 33.6862799,4.61429903 33.6862799,4.77980456 L33.6862799,5.52 C33.6862799,5.68550553 33.5518125,5.81967427 33.3859386,5.81967427 L32.8753584,5.81967427 C32.7094844,5.81967427 32.5750171,5.95384301 32.5750171,6.11934853 L32.5750171,8.40885993 C32.5750171,8.57436546 32.7094844,8.7085342 32.8753584,8.7085342 L33.9385666,8.7085342 C34.1044405,8.7085342 34.2389078,8.84270294 34.2389078,9.00820847 L34.2389078,9.86827362 C34.2389078,10.0337791 34.1044405,10.1679479 33.9385666,10.1679479 L31.3796587,10.1679479 C31.2137848,10.1679479 31.0793174,10.0337791 31.0793174,9.86827362" id="Path"></path>
                <path d="M37.4825939,10.0600651 C37.2483276,10.0600651 37.1191809,9.11908795 37.1191809,8.56169381 L37.1191809,6.46397394 C37.1191809,6.23322476 37.0020478,6.02944625 36.8008191,6.02944625 L36.4374061,6.02944625 L36.4374061,9.76938111 C36.4293972,9.92900765 36.2972469,10.0542716 36.1370648,10.0540717 L35.2300341,10.0540717 C35.0698521,10.0542716 34.9377018,9.92900765 34.9296928,9.76938111 L34.9296928,0.704234528 C34.9296928,0.538729 35.0641602,0.404560261 35.2300341,0.404560261 L36.96,0.404560261 C37.6988396,0.404560261 38.5247782,0.839087948 38.5247782,2.10071661 L38.5247782,4.30032573 C38.5227485,4.62818087 38.3885159,4.94141494 38.1523549,5.16938111 C38.039831,5.28553384 38.039831,5.46977561 38.1523549,5.58592834 C38.4171765,5.81039416 38.571622,6.1382719 38.5758362,6.48495114 L38.5758362,8.43882736 C38.5793979,8.96572353 38.6428757,9.49051452 38.7650512,10.003127 L38.7650512,10.0450814 L37.4825939,10.0600651 Z M37.0741297,2.18462541 C37.0741297,1.88495114 36.9870307,1.78006515 36.8128328,1.78006515 L36.4374061,1.78006515 L36.4374061,4.7618241 L36.8128328,4.7618241 C36.9870307,4.7618241 37.0741297,4.65993485 37.0741297,4.35726384 L37.0741297,2.18462541 Z" id="Shape" fill-rule="nonzero"></path>
                <path d="M41.2638908,10.2069055 C40.7390185,10.2157335 40.233847,10.0076272 39.8680966,9.63190555 C39.5023462,9.2561839 39.308572,8.74628954 39.3326962,8.22306189 L39.3326962,2.25654723 C39.3103517,1.73380087 39.5047113,1.22493737 39.870071,0.849617034 C40.2354308,0.474296694 40.7395524,0.265636595 41.2638908,0.272703583 C42.3661433,0.272703583 42.9878498,1.06684039 42.9878498,2.21159609 L42.9878498,3.57511401 C42.9878498,3.74061953 42.8533825,3.87478827 42.6875085,3.87478827 L41.9877133,3.87478827 C41.8218394,3.87478827 41.687372,3.74061953 41.687372,3.57511401 L41.687372,2.16964169 C41.7035824,2.0488691 41.6635331,1.92733275 41.5786556,1.83972341 C41.4937781,1.75211406 41.3733984,1.70805797 41.2518771,1.72013029 C40.9515358,1.72013029 40.8313993,1.90892508 40.8313993,2.16964169 L40.8313993,8.30996743 C40.8313993,8.57068404 40.9485324,8.75947883 41.2518771,8.75947883 C41.3733984,8.77155115 41.4937781,8.72749506 41.5786556,8.63988571 C41.6635331,8.55227637 41.7035824,8.43074002 41.687372,8.30996743 L41.687372,6.89250814 C41.687372,6.72700262 41.8218394,6.59283388 41.9877133,6.59283388 L42.6875085,6.59283388 C42.8533825,6.59283388 42.9878498,6.72700262 42.9878498,6.89250814 L42.9878498,8.25302932 C42.9878498,9.41276873 42.3661433,10.1949186 41.2638908,10.1949186" id="Path"></path>
                <path d="M45.847099,9.79035831 L45.7870307,8.68456026 C45.7730039,8.52966949 45.6425561,8.41122565 45.4866894,8.41185668 L45.1412969,8.41185668 C44.9895467,8.41057245 44.8606784,8.52243886 44.8409556,8.67257329 L44.741843,9.79934853 C44.7229716,9.94394229 44.6025313,10.0539953 44.4565188,10.0600651 L43.6936519,10.0600651 C43.6128535,10.0562341 43.5370196,10.0200459 43.4833146,9.95969139 C43.4296096,9.89933691 43.4025742,9.81991921 43.4083276,9.73941368 L44.4865529,0.671270358 C44.5080682,0.529042495 44.6278267,0.422128172 44.7718771,0.416547231 L45.9732423,0.416547231 C46.1172928,0.422128172 46.2370513,0.529042495 46.2585666,0.671270358 L47.3367918,9.73941368 C47.3425453,9.81991921 47.3155099,9.89933691 47.2618049,9.95969139 C47.2080998,10.0200459 47.132266,10.0562341 47.0514676,10.0600651 L46.1264164,10.0600651 C45.971597,10.0608393 45.8415553,9.94406163 45.8260751,9.79035831 L45.847099,9.79035831 Z M45.3755631,3.03869707 L45.0511945,6.72169381 C45.0128863,6.84476336 45.0577232,6.97848904 45.1625407,7.05378285 C45.2673582,7.12907665 45.4086827,7.12907665 45.5135002,7.05378285 C45.6183178,6.97848904 45.6631547,6.84476336 45.6248464,6.72169381 L45.3755631,3.03869707 Z" id="Shape" fill-rule="nonzero"></path>
                <path d="M49.9467577,10.0600651 L48.261843,10.0600651 C48.0959691,10.0600651 47.9615017,9.92589641 47.9615017,9.76039088 L47.9615017,0.704234528 C47.9615017,0.538729 48.0959691,0.404560261 48.261843,0.404560261 L49.9467577,0.404560261 C50.8477816,0.404560261 51.7007509,0.940977199 51.7007509,2.2895114 L51.7007509,8.22605863 C51.7007509,9.57159609 50.8597952,10.0480782 49.9467577,10.0480782 L49.9467577,10.0600651 Z M50.2080546,2.2895114 C50.2080546,1.95387622 50.0759044,1.79504886 49.8146075,1.79504886 L49.4662116,1.79504886 L49.4662116,8.687557 L49.8146075,8.687557 C50.0759044,8.687557 50.2080546,8.5257329 50.2080546,8.18110749 L50.2080546,2.2895114 Z" id="Shape" fill-rule="nonzero"></path>
                <path d="M54.3617747,10.2069055 C53.8488316,10.2140346 53.3556619,10.0097077 52.9986506,9.64214473 C52.6416393,9.27458177 52.4524142,8.77634538 52.4756314,8.26501629 L52.4756314,2.21159609 C52.4756314,1.17222138 53.3200865,0.329641694 54.3617747,0.329641694 C55.4034629,0.329641694 56.2479181,1.17222138 56.2479181,2.21159609 L56.2479181,8.26501629 C56.2738289,8.7770663 56.0854915,9.27686301 55.7278883,9.6450354 C55.370285,10.0132078 54.8755245,10.2166983 54.3617747,10.2069055 Z M54.7251877,2.11570033 C54.7251877,1.91543864 54.5624822,1.75309446 54.3617747,1.75309446 C54.1610673,1.75309446 53.9983618,1.91543864 53.9983618,2.11570033 L53.9983618,8.36990228 C53.9983618,8.57016397 54.1610673,8.73250814 54.3617747,8.73250814 C54.5624822,8.73250814 54.7251877,8.57016397 54.7251877,8.36990228 L54.7251877,2.11570033 Z" id="Shape" fill-rule="nonzero"></path>
            </g>
        </g>
    </g>
  </symbol>
  <symbol id="hamburger-menu" viewBox="0 0 36 29">
    <title>Menu Icon</title>
    <desc>Created with Sketch.</desc>
    <defs></defs>
    <g id="Symbols" stroke="none" stroke-width="1" fill-rule="evenodd">
        <g id="mobile/menu/menu-inverted" transform="translate(-29.000000, -32.000000)">
            <g id="Group" transform="translate(29.000000, 32.000000)">
                <rect id="Rectangle" x="0" y="0" width="36" height="4.11428571"></rect>
                <rect id="Rectangle-Copy" x="0" y="12.3428571" width="36" height="4.11428571"></rect>
                <rect id="Rectangle-Copy-2" x="0" y="24.6857143" width="36" height="4.11428571"></rect>
            </g>
        </g>
    </g>
  </symbol>
</svg>
