<?xml version="1.0" encoding="UTF-8"?>
<svg width="160px" height="35px"  version="1.1" xmlns="http://www.w3.org/2000/svg" xmlns:xlink="http://www.w3.org/1999/xlink">
    <!-- Generator: Sketch 51.3 (57544) - http://www.bohemiancoding.com/sketch -->
  <symbol id="MLS_horizontal" viewBox="0 0 160 35">
    <title>Mercado Little Spain</title>
    <g id="Symbols" stroke="none" stroke-width="1" fill-rule="evenodd">
        <g id="desktop/nav/home" transform="translate(-30.000000, -36.000000)">
            <g id="H_LOGO_RED[5]">
                <g transform="translate(30.000000, 36.000000)">
                    <path d="M0,33.4472517 L0,0.80837783 C0,0.566927936 0.211857595,0.372340426 0.474398825,0.372340426 L5.16804133,0.372340426 C5.43058256,0.372340426 5.64244015,0.566927936 5.64244015,0.80837783 L5.64244015,28.6170124 C5.64244015,28.8578416 5.85497353,29.0530498 6.11717687,29.0530498 L11.5443805,29.0530498 C11.8059081,29.0530498 12.0187793,29.2476373 12.0187793,29.4881562 L12.0187793,33.4472517 C12.0187793,33.6883912 11.8059081,33.8829787 11.5443805,33.8829787 L0.474398825,33.8829787 C0.211857595,33.8829787 0,33.6883912 0,33.4472517" id="Fill-1"></path>
                    <path d="M13.5211268,33.4714625 L13.5211268,0.783546269 C13.5211268,0.556374437 13.7348867,0.372340426 13.9979482,0.372340426 L19.0544147,0.372340426 C19.3171163,0.372340426 19.5305164,0.556374437 19.5305164,0.783546269 L19.5305164,33.4714625 C19.5305164,33.6980137 19.3171163,33.8829787 19.0544147,33.8829787 L13.9979482,33.8829787 C13.7348867,33.8829787 13.5211268,33.6980137 13.5211268,33.4714625" id="Fill-2"></path>
                    <path d="M30.7623858,15.5044873 L30.7623858,32.7281806 C30.7623858,32.9550998 30.5508126,33.1382979 30.289813,33.1382979 L25.2970414,33.1382979 C25.0360419,33.1382979 24.8241131,32.9550998 24.8241131,32.7281806 L24.8241131,15.5044873 C24.8241131,15.2784918 24.6128955,15.0952938 24.351896,15.0952938 L21.5065033,15.0952938 C21.2440815,15.0952938 21.0328638,14.9117878 21.0328638,14.6854844 L21.0328638,10.462693 C21.0328638,10.2366974 21.2440815,10.0531915 21.5065033,10.0531915 L34.0807067,10.0531915 C34.3424174,10.0531915 34.5539906,10.2366974 34.5539906,10.462693 L34.5539906,14.6854844 C34.5539906,14.9117878 34.3424174,15.0952938 34.0807067,15.0952938 L31.2349585,15.0952938 C30.9746701,15.0952938 30.7623858,15.2784918 30.7623858,15.5044873" id="Fill-3"></path>
                    <path d="M45.0341181,15.5463612 L45.0341181,32.6863068 C45.0341181,32.9360103 44.8005294,33.1382979 44.5128988,33.1382979 L39.6178456,33.1382979 C39.3298594,33.1382979 39.0966262,32.9360103 39.0966262,32.6863068 L39.0966262,15.5463612 C39.0966262,15.2975813 38.8637485,15.0943701 38.5750513,15.0943701 L35.8267392,15.0943701 C35.5394641,15.0943701 35.3051643,14.8926983 35.3051643,14.6429948 L35.3051643,10.5045668 C35.3051643,10.255787 35.5394641,10.0531915 35.8267392,10.0531915 L48.3040051,10.0531915 C48.5919912,10.0531915 48.8262911,10.255787 48.8262911,10.5045668 L48.8262911,14.6429948 C48.8262911,14.8926983 48.5919912,15.0943701 48.3040051,15.0943701 L45.5549819,15.0943701 C45.2669958,15.0943701 45.0341181,15.2975813 45.0341181,15.5463612" id="Fill-4"></path>
                    <path d="M51.0798122,33.4984625 L51.0798122,0.756546338 C51.0798122,0.544891708 51.2670143,0.372340426 51.4984826,0.372340426 L56.3042372,0.372340426 C56.5357055,0.372340426 56.7229075,0.544891708 56.7229075,0.756546338 L56.7229075,28.6682679 C56.7229075,28.8805433 56.9101096,29.0524739 57.14124,29.0524739 L62.6799212,29.0524739 C62.9113895,29.0524739 63.0985915,29.2244044 63.0985915,29.4373005 L63.0985915,33.4984625 C63.0985915,33.7104274 62.9113895,33.8829787 62.6799212,33.8829787 L51.4984826,33.8829787 C51.2670143,33.8829787 51.0798122,33.7104274 51.0798122,33.4984625" id="Fill-5"></path>
                    <path d="M64.600939,33.454696 L64.600939,0.799692074 C64.600939,0.563515891 64.8088601,0.372340426 65.0644787,0.372340426 L76.1571863,0.372340426 C76.4121331,0.372340426 76.6197183,0.563515891 76.6197183,0.799692074 L76.6197183,4.77403137 C76.6197183,5.0105179 76.4121331,5.20231407 76.1571863,5.20231407 L70.6739814,5.20231407 C70.4186986,5.20231407 70.2104416,5.39379988 70.2104416,5.63028641 L70.2104416,13.9315224 C70.2104416,14.1683192 70.4186986,14.3604258 70.6739814,14.3604258 L74.0863729,14.3604258 C74.3429992,14.3604258 74.5505844,14.5519116 74.5505844,14.7883981 L74.5505844,18.510423 C74.5505844,18.7469096 74.3429992,18.9387057 74.0863729,18.9387057 L70.6739814,18.9387057 C70.4186986,18.9387057 70.2104416,19.1295708 70.2104416,19.3669884 L70.2104416,28.4729613 C70.2104416,28.7097582 70.4186986,28.9006233 70.6739814,28.9006233 L76.1571863,28.9006233 C76.4121331,28.9006233 76.6197183,29.0927299 76.6197183,29.3295267 L76.6197183,33.454696 C76.6197183,33.6911826 76.4121331,33.8829787 76.1571863,33.8829787 L65.0644787,33.8829787 C64.8088601,33.8829787 64.600939,33.6911826 64.600939,33.454696" id="Fill-6"></path>
                    <path d="M24.5598214,7.81914894 C24.4244283,7.81914894 24.3136215,7.71938774 24.3136215,7.59711944 L24.3136215,2.149793 L24.1405069,3.84907903 L23.634635,7.62358049 C23.6191422,7.73550769 23.5137242,7.81914894 23.390119,7.81914894 L22.9869708,7.81914894 C22.8616816,7.81914894 22.7559268,7.73337864 22.7417812,7.62114729 L22.295186,3.84907903 L22.1469945,2.149793 L22.1469945,7.59711944 C22.1469945,7.71938774 22.0358508,7.81914894 21.9001209,7.81914894 L21.278727,7.81914894 C21.1423235,7.81914894 21.0328638,7.71938774 21.0328638,7.59711944 L21.0328638,0.594369923 C21.0328638,0.471189174 21.1423235,0.372340426 21.278727,0.372340426 L22.4891821,0.372340426 C22.6124505,0.372340426 22.7168581,0.454156775 22.7330245,0.563650773 L23.1503182,3.30191319 L23.3234329,4.98994567 L23.4844227,3.30191319 L23.8653422,0.565779823 C23.8811718,0.455373375 23.986253,0.372340426 24.1091846,0.372340426 L25.2933693,0.372340426 C25.4297729,0.372340426 25.5399061,0.471189174 25.5399061,0.594369923 L25.5399061,7.59711944 C25.5399061,7.71938774 25.4297729,7.81914894 25.2933693,7.81914894 L24.5598214,7.81914894" id="Fill-7"></path>
                    <path d="M27.0422535,7.59712851 L27.0422535,0.594664992 C27.0422535,0.471793412 27.1347668,0.372340426 27.2491314,0.372340426 L29.0883292,0.372340426 C29.20241,0.372340426 29.2957746,0.471793412 29.2957746,0.594664992 L29.2957746,1.2236215 C29.2957746,1.3458848 29.20241,1.4462502 29.0883292,1.4462502 L28.3238177,1.4462502 C28.2091694,1.4462502 28.1169399,1.54539905 28.1169399,1.66827063 L28.1169399,3.25891014 C28.1169399,3.38147759 28.2091694,3.48093057 28.3238177,3.48093057 L28.6913168,3.48093057 C28.8065327,3.48093057 28.8993297,3.58007942 28.8993297,3.70325514 L28.8993297,4.27625033 C28.8993297,4.39912191 28.8065327,4.49827076 28.6913168,4.49827076 L28.3238177,4.49827076 C28.2091694,4.49827076 28.1169399,4.59802789 28.1169399,4.72089947 L28.1169399,6.49006774 C28.1169399,6.61293932 28.2091694,6.71208817 28.3238177,6.71208817 L29.0883292,6.71208817 C29.20241,6.71208817 29.2957746,6.81184529 29.2957746,6.93471687 L29.2957746,7.59712851 C29.2957746,7.71939181 29.20241,7.81914894 29.0883292,7.81914894 L27.2491314,7.81914894 C27.1347668,7.81914894 27.0422535,7.71939181 27.0422535,7.59712851" id="Fill-8"></path>
                    <path d="M32.7974189,7.81914894 C32.6149866,7.81914894 32.5118051,7.091956 32.5118051,6.66737994 L32.5118051,5.04693494 C32.5118051,4.86718964 32.4210551,4.71055879 32.2606887,4.71055879 L31.9750748,4.71055879 L31.9750748,7.59712851 C31.9750748,7.71939181 31.8731365,7.81914894 31.7485106,7.81914894 L31.0256186,7.81914894 C30.8994388,7.81914894 30.7981221,7.71939181 30.7981221,7.59712851 L30.7981221,0.594360855 C30.7981221,0.471489275 30.8994388,0.372340426 31.0256186,0.372340426 L32.3862469,0.372340426 C32.9686629,0.372340426 33.619763,0.707500033 33.619763,1.68074027 L33.619763,3.38086931 C33.619763,3.64029866 33.5109873,3.86870598 33.3266902,4.05149266 C33.2356295,4.14212566 33.2244411,4.28659101 33.3198529,4.37357436 C33.5212433,4.55666517 33.6542604,4.78568077 33.6542604,5.06883285 L33.6542604,6.57857177 C33.6542604,7.04785605 33.7235661,7.42863629 33.8028169,7.78599794 L33.8028169,7.81914894 L32.7974189,7.81914894 Z M32.4776184,1.73639745 C32.4776184,1.51316047 32.4092452,1.42404816 32.2715662,1.42404816 L31.9750748,1.42404816 L31.9750748,3.72697787 L32.2715662,3.72697787 C32.4092452,3.72697787 32.4776184,3.64881452 32.4776184,3.41371617 L32.4776184,1.73639745 Z" id="Fill-9"></path>
                    <path d="M36.1402073,7.81914894 C35.2580385,7.81914894 34.5539906,7.22240032 34.5539906,6.33214943 L34.5539906,1.85904466 C34.5539906,0.980309447 35.2580385,0.372340426 36.1402073,0.372340426 C37.0467096,0.372340426 37.5586854,0.969089038 37.5586854,1.82656453 L37.5586854,2.84880288 C37.5586854,2.96779827 37.4532405,3.06405757 37.3215154,3.06405757 L36.7469214,3.06405757 C36.6158452,3.06405757 36.5100758,2.96779827 36.5100758,2.84880288 L36.5100758,1.79437967 C36.5100758,1.5992036 36.4020353,1.45747212 36.1518874,1.45747212 C35.9010906,1.45747212 35.8066768,1.5992036 35.8066768,1.79437967 L35.8066768,6.39770024 C35.8066768,6.59199048 35.9010906,6.7334267 36.1518874,6.7334267 C36.4020353,6.7334267 36.5100758,6.59199048 36.5100758,6.39770024 L36.5100758,5.34327703 C36.5100758,5.22339582 36.6158452,5.12713652 36.7469214,5.12713652 L37.3215154,5.12713652 C37.4532405,5.12713652 37.5586854,5.22339582 37.5586854,5.34327703 L37.5586854,6.36433428 C37.5586854,7.23214436 37.0467096,7.81914894 36.1402073,7.81914894" id="Fill-10"></path>
                    <path d="M39.4118888,7.60929401 L39.3673965,6.7552757 C39.3607378,6.63757446 39.263884,6.54511664 39.1464488,6.54511664 L38.8797981,6.54511664 C38.7653896,6.54511664 38.6691411,6.6330124 38.6594557,6.74736812 L38.5840913,7.61720159 C38.5734979,7.73186145 38.4781575,7.81914894 38.3634462,7.81914894 L37.779902,7.81914894 C37.6479387,7.81914894 37.5450315,7.70357666 37.5601649,7.57158095 L38.387357,0.569117436 C38.4006744,0.456890671 38.4945015,0.372340426 38.6064888,0.372340426 L39.5154013,0.372340426 C39.6273885,0.372340426 39.7221236,0.456890671 39.7357437,0.569117436 L40.5617251,7.57158095 C40.5777666,7.70357666 40.475162,7.81914894 40.3425934,7.81914894 L39.6328365,7.81914894 C39.5147959,7.81914894 39.4173368,7.72669111 39.4118888,7.60929401 M39.0668471,2.39668012 L38.8104871,5.24036644 C38.7995911,5.37084146 39.260252,5.37449111 39.251172,5.24644919 L39.0668471,2.39668012" id="Fill-11"></path>
                    <path d="M42.9042084,7.81914894 L41.5461003,7.81914894 C41.418559,7.81914894 41.314554,7.71939181 41.314554,7.59712851 L41.314554,0.595273268 C41.314554,0.471489275 41.418559,0.372340426 41.5461003,0.372340426 L42.9042084,0.372340426 C43.6408309,0.372340426 44.3192488,0.786271664 44.3192488,1.82642217 L44.3192488,6.41038369 C44.3192488,7.45023006 43.6408309,7.81914894 42.9042084,7.81914894 M43.1150809,1.82642217 C43.1150809,1.56881764 43.0104398,1.44564193 42.7992492,1.44564193 L42.51904,1.44564193 L42.51904,6.75740466 L42.7992492,6.75740466 C43.0104398,6.75740466 43.1150809,6.63453308 43.1150809,6.36628374 L43.1150809,1.82642217" id="Fill-12"></path>
                    <path d="M47.324258,7.81914894 C46.4921355,7.81914894 45.8215962,7.233279 45.8215962,6.3648095 L45.8215962,1.82579397 C45.8215962,0.968841068 46.4921355,0.372340426 47.324258,0.372340426 C48.1676977,0.372340426 48.8262911,0.968841068 48.8262911,1.82579397 L48.8262911,6.3648095 C48.8262911,7.233279 48.1676977,7.81914894 47.324258,7.81914894 M47.6131589,1.75049315 C47.6131589,1.5659323 47.4974728,1.45726288 47.324258,1.45726288 C47.1507289,1.45726288 47.0350428,1.5659323 47.0350428,1.75049315 L47.0350428,6.44070092 C47.0350428,6.62555706 47.1507289,6.73363589 47.324258,6.73363589 C47.4974728,6.73363589 47.6131589,6.62555706 47.6131589,6.44070092 L47.6131589,1.75049315" id="Fill-13"></path>
                    <path d="M93.9228312,34.6276596 C89.714492,34.6276596 87.1361502,32.1308094 87.1361502,27.6864899 L87.1361502,24.5977617 C87.1361502,24.373267 87.32822,24.1909612 87.5650628,24.1909612 L91.4427954,24.1909612 C91.680287,24.1909612 91.8717079,24.373267 91.8717079,24.5977617 L91.8717079,28.0868235 C91.8717079,29.2838212 92.4505127,30.0838726 93.6593842,30.0838726 C94.8176427,30.0838726 95.3957986,29.3343248 95.3957986,28.0868235 C95.3957986,25.0898642 94.1333942,22.7432931 92.081622,19.3977355 C90.0298498,16.3016166 87.2419184,11.707326 87.2419184,7.86227518 C87.2419184,3.71759004 89.504578,0.372340426 94.2391623,0.372340426 C97.9222296,0.372340426 100.394154,2.91907838 100.394154,7.31351012 L100.394154,10.5522094 C100.394154,10.7767042 100.20176,10.9580861 99.9652419,10.9580861 L96.1400689,10.9580861 C95.9035506,10.9580861 95.7118052,10.7767042 95.7118052,10.5522094 L95.7118052,6.8127851 C95.7118052,5.71494704 95.0804408,5.11567835 94.2391623,5.11567835 C93.3446753,5.11567835 92.6068938,5.66505931 92.6068938,6.8127851 C92.6068938,10.6587597 93.817712,12.0063444 96.027163,15.7023479 C98.3417333,19.4479312 100.657277,23.3921415 100.657277,27.2870801 C100.657277,32.4806394 97.342776,34.6276596 93.9228312,34.6276596" id="Fill-14"></path>
                    <path d="M112.820645,20.8510121 L110.403341,20.8510121 C110.212377,20.8510121 110.058253,20.9925054 110.058253,21.1672 L110.058253,33.5661703 C110.058253,33.7414854 109.90413,33.8829787 109.713504,33.8829787 L104.758571,33.8829787 C104.567269,33.8829787 104.413146,33.7414854 104.413146,33.5661703 L104.413146,0.688838579 C104.413146,0.513833718 104.567269,0.372340426 104.758571,0.372340426 L112.820645,0.372340426 C115.726006,0.372340426 118.685446,1.88160221 118.685446,6.35974078 L118.685446,14.8629912 C118.685446,19.2908624 115.726006,20.8510121 112.820645,20.8510121 M113.260032,6.51085314 C113.260032,5.50426489 112.93083,5.10150548 112.273439,5.10150548 L110.403341,5.10150548 C110.212377,5.10150548 110.058253,5.24299877 110.058253,5.41862422 L110.058253,16.1569101 C110.058253,16.3309841 110.212377,16.4734082 110.403341,16.4734082 L112.273439,16.4734082 C112.93083,16.4734082 113.260032,16.0706488 113.260032,15.0646812 L113.260032,6.51085314" id="Fill-15"></path>
                    <path d="M128.429654,33.5872647 L128.119778,28.4425229 C128.110172,28.2771341 127.952209,28.1468089 127.761516,28.1468089 L124.910367,28.1468089 C124.72501,28.1468089 124.569894,28.2709281 124.553884,28.4316625 L124.034458,33.5984354 C124.018093,33.7594801 123.863688,33.8829787 123.677976,33.8829787 L119.04299,33.8829787 C118.82846,33.8829787 118.663027,33.7194516 118.687931,33.5342037 L123.160685,0.647574799 C123.181675,0.490874282 123.334657,0.372340426 123.5161,0.372340426 L129.62967,0.372340426 C129.811113,0.372340426 129.964095,0.490874282 129.984729,0.647574799 L134.457483,33.5342037 C134.483099,33.7194516 134.316954,33.8829787 134.102424,33.8829787 L128.787916,33.8829787 C128.596867,33.8829787 128.440327,33.7529638 128.429654,33.5872647 M126.187229,13.4712625 L125.194272,23.0262704 C125.17506,23.2093463 125.340138,23.367288 125.550755,23.367288 L127.2581,23.367288 C127.464803,23.367288 127.629169,23.2149316 127.614938,23.0349588 L126.900194,13.4790199 C126.871733,13.0948709 126.227075,13.0877341 126.187229,13.4712625" id="Fill-16"></path>
                    <path d="M135.962441,33.546929 L135.962441,0.70745922 C135.962441,0.522212998 136.136225,0.372340426 136.352105,0.372340426 L141.582887,0.372340426 C141.798047,0.372340426 141.971831,0.522212998 141.971831,0.70745922 L141.971831,33.546929 C141.971831,33.7321753 141.798047,33.8829787 141.582887,33.8829787 L136.352105,33.8829787 C136.136225,33.8829787 135.962441,33.7321753 135.962441,33.546929" id="Fill-17"></path>
                    <path d="M155.623094,33.8829787 C155.474309,33.8829787 155.345339,33.7892704 155.309738,33.6558448 L151.156514,17.1591542 C151.063481,16.8190739 150.519726,16.8817529 150.519726,17.2326935 L150.519726,33.5835466 C150.519726,33.7489324 150.374971,33.8829787 150.196967,33.8829787 L146.050795,33.8829787 C145.87279,33.8829787 145.7277,33.7489324 145.7277,33.5835466 L145.7277,0.670841625 C145.7277,0.505455825 145.87279,0.372340426 146.050795,0.372340426 L150.805206,0.372340426 C150.957014,0.372340426 151.08867,0.46977221 151.120913,0.606611117 L154.799905,16.4526187 C154.832819,16.6304162 155.26171,16.6378632 155.26171,16.4526187 L155.26171,0.670841625 C155.26171,0.505455825 155.40613,0.372340426 155.58447,0.372340426 L159.676904,0.372340426 C159.855917,0.372340426 160,0.505455825 160,0.670841625 L160,33.5835466 C160,33.7489324 159.855917,33.8829787 159.676904,33.8829787 L155.623094,33.8829787" id="Fill-18"></path>
                </g>
            </g>
        </g>
    </g>
  </symbol>
</svg>