
<!-- Generator: Adobe Illustrator 21.0.0, SVG Export Plug-In . SVG Version: 6.00 Build 0)  -->
<svg version="1.1" id="Capa_2" xmlns="http://www.w3.org/2000/svg" xmlns:xlink="http://www.w3.org/1999/xlink" x="0px" y="0px"
	 viewBox="0 0 1194.9 723.6" style="enable-background:new 0 0 1194.9 723.6;" xml:space="preserve">

	 <style type="text/css">
	 	.st0{fill:#FDF16F;stroke:#EB0029;stroke-width:3;stroke-linecap:round;stroke-linejoin:round;stroke-miterlimit:10;}
	 	.st1{fill:none;}
	 	.st2{fill:#EB0029;}
	 	.st3{font-family:'Knockout-HTF30-JuniorWelterwt';}
	 	.st4{font-size:14px;}
	 	.st5{font-family:'DomaineDisp-RegularItalic';}
	 	.st6{font-size:10px;}
	 	.st7{font-family:'Knockout-HTF52-Cruiserweight';}
	 	.st8{fill:none;stroke:#EB0029;stroke-width:3;stroke-linecap:round;stroke-linejoin:round;stroke-miterlimit:10;}
	 	.st9{fill:none;stroke:#FFFFFF;stroke-width:2;stroke-linecap:round;stroke-linejoin:round;stroke-miterlimit:10;}
	 	.st10{fill:#FFFFFF;}
	 	.st11{font-size:12px;}

		.svg-stalls g{
			cursor: pointer;
		}
		.svg-stalls g text{
			user-select: none;
		}

		.svg-stalls g polygon, .svg-stalls g rect, .svg-stalls g text{
			transition: ease 300ms all;
		}

		.svg-stalls g:hover polygon, .svg-stalls g:hover rect{
			fill: #EB0029 !important;
		}
		.svg-stalls g:hover text{
			fill: #FEF16F;
		}

		.svg-stalls g:hover tspan{
			fill: #FEF16F;
		}
	 </style>


<g class="svg-stalls">
	<a href="javascript:void(0)">
		<g id='carnes' class='svg-stall-cont'>
			<polygon class="st0" points="89.3,534 173,534 173,501.8 206.3,501.8 206.3,445.6 89.3,445.6 "/>
			<text transform="matrix(1 0 0 1 155.8675 475.9246)" class="st2 st3 st4">Carnes</text>
		</g>
	</a>

	<a href="javascript:void(0)">
		<g id='paellas-al-plato' class='svg-stall-cont'
			img="{{boxes.kiosks.by_slug['paellas-al-plato'].fields.page_icon.url}}"
			text="{{boxes.kiosks.by_slug['paellas-al-plato'].fields.hover_text}}"
			type="{% for cat in boxes.kiosks.by_slug['paellas-al-plato'].categories %}{{cat.slug}} {% endfor %}"
			>
			<polygon class="st0" points="192.9,393.6 192.9,393.6 89.3,393.6 89.3,445.6 206.3,445.6 206.3,407 "/>
			<text transform="matrix(1 0 0 1 137.1862 414.1079)"><tspan x="0" y="0" class="st2 st3 st4">Paella </tspan><tspan x="-3.7" y="13" class="st2 st3 st4">Al Plato</tspan></text>
		</g>
	</a>

	<a href="javascript:void(0)">
		<g id='churros' class='svg-stall-cont'
			img="{{boxes.kiosks.by_slug['churros'].fields.page_icon.url}}"
			text="{{boxes.kiosks.by_slug['churros'].fields.hover_text}}"
			type="{% for cat in boxes.kiosks.by_slug['churros'].categories %}{{cat.slug}} {% endfor %}"
			>
			<polygon class="st0" points="563.6,304.6 550.3,317.9 550.3,355.8 601.5,355.8 601.5,304.6 "/>
			<text transform="matrix(1 0 0 1 556.3158 335.5366)" class="st2 st3 st4">Churros</text>
		</g>
	</a>

	<a href="javascript:void(0)">
		<g id='pasteles' class='svg-stall-cont'
			img="{{boxes.kiosks.by_slug['pasteles'].fields.page_icon.url}}"
			text="{{boxes.kiosks.by_slug['pasteles'].fields.hover_text}}"
			type="{% for cat in boxes.kiosks.by_slug['pasteles'].categories %}{{cat.slug}} {% endfor %}"
			>
			<polygon class="st0" points="414.6,51.5 414.6,77.3 428,90.6 511.2,90.6 550.3,51.5 "/>
			<text transform="matrix(1 0 0 1 459.6593 75.635)" class="st2 st3 st4">Pasteles</text>
			<g>
				<circle class="st2" cx="436.1" cy="70.4" r="13.6"/>
				<g>
					<g>
						<path class="st9" d="M430.5,63.6v5.5c0,2.8,2.3,5.1,5.1,5.1c2.8,0,5.1-2.3,5.1-5.1v-5.5H430.5z"/>
						<line class="st9" x1="430.5" y1="77.6" x2="440.7" y2="77.6"/>
					</g>
					<path class="st9" d="M440.7,70.3c0.5,0.4,1.1,0.7,1.8,0.7c1.4,0,2.6-1.2,2.6-2.6c0-1.4-1.2-2.6-2.6-2.6c-0.7,0-1.3,0.3-1.8,0.7"/>
				</g>
			</g>
		</g>
	</a>

	<a href="javascript:void(0)">
		<g id='helados' class='svg-stall-cont'
			img="{{boxes.kiosks.by_slug['helados'].fields.page_icon.url}}" text="{{boxes.kiosks.by_slug['helados'].fields.hover_text}}"
			type="{% for cat in boxes.kiosks.by_slug['helados'].categories %}{{cat.slug}} {% endfor %}"
			>
			<polygon class="st0" points="511.2,90.6 511.2,131.1 524.5,144.5 524.5,144.5 550.3,144.5 550.3,51.5 "/>
			<text transform="matrix(0 -1 1 0 536.4342 123.4124)" class="st2 st3 st4">Helados</text>
		</g>
	</a>

	<a href="javascript:void(0)">
		<g id='lena' class='svg-stall-cont'
			img="{{boxes.restaurant.by_slug.lena.fields.logo.url}}"
			text='Leña'
			type='restaurant'
			>
			<polygon class="st0" points="173,534 89.3,534 89.3,687.7 215.7,687.7 215.7,534 "/>
			<text transform="matrix(1 0 0 1 139.0202 608.7438)" class="st2 st3 st4">LEÑA</text>
		</g>
	</a>

	<a href="javascript:void(0)" >
		<g id='mar' class='svg-stall-cont'
			img="{{boxes.restaurant.by_slug.mar.fields.logo.url}}"
			text='Mar'
			type='restaurant'
			>
			<polygon class="st0" points="110.1,168 110.1,276.2 159.6,276.2 159.6,217.5 225.6,217.5 256.3,217.5 256.3,168 	"/>
			<text transform="matrix(1 0 0 1 171.681 192.7721)" class="st2 st3 st4">MAR</text>
		</g>
	</a>

	<a  href="javascript:void(0)">
		<g id='pescados' class='svg-stall-cont'
			img="{{boxes.kiosks.by_slug['pescados'].fields.page_icon.url}}" text="{{boxes.kiosks.by_slug['pescados'].fields.hover_text}}"
			type="{% for cat in boxes.kiosks.by_slug['pescados'].categories %}{{cat.slug}} {% endfor %}"
			>
			<rect x="225.6" y="217.5" class="st0" width="30.7" height="58.7"/>
			<text transform="matrix(0 -1 1 0 244.0965 270.8626)" class="st2 st3 st4">Pescados</text>
		</g>
	</a>

	<a  href="javascript:void(0)">
		<g id='huevos' class='svg-stall-cont'
			img="{{boxes.kiosks.by_slug['huevos'].fields.page_icon.url}}" text="{{boxes.kiosks.by_slug['huevos'].fields.hover_text}}"
			type="{% for cat in boxes.kiosks.by_slug['huevos'].categories %}{{cat.slug}} {% endfor %}"
			>
			<polygon class="st0" points="159.6,276.0 159.6,324.6 173,338 173,338 256.3,338 256.3,276.0 225.6,276.0 	"/>
			<text transform="matrix(1 0 0 1 167.4874 305.105)"><tspan x="0" y="0" class="st2 st3 st4">Huevos &amp; Lacón </tspan><tspan x="11.2" y="13" class="st2 st3 st4">con Patatas</tspan></text>
		</g>
	</a>

	<a href="javascript:void(0)">
		<g id='bravas' class='svg-stall-cont'
			img="{{boxes.kiosks.by_slug['bravas'].fields.page_icon.url}}" text="{{boxes.kiosks.by_slug['bravas'].fields.hover_text}}"
			type="{% for cat in boxes.kiosks.by_slug['bravas'].categories %}{{cat.slug}} {% endfor %}"
			>
			<polygon class="st0" points="550.3,393 563.6,406.4 601.5,406.4 601.5,355.2 550.3,355.2 	"/>
			<text transform="matrix(1 0 0 1 559.0597 384.5146)" class="st2 st3 st4">Bravas</text>
		</g>
	</a>

	<a href="javascript:void(0)">
		<g id='jamon-queso' class='svg-stall-cont'
			img="{{boxes.kiosks.by_slug['jamon-queso'].fields.page_icon.url}}" text="{{boxes.kiosks.by_slug['jamon-queso'].fields.hover_text}}"
			type="{% for cat in boxes.kiosks.by_slug['jamon-queso'].categories %}{{cat.slug}} {% endfor %}"
			>
			<polygon class="st0" points="454.7,426.8 441.9,439.6 390.3,439.6 376.9,453 376.9,453 376.9,501.8 498.8,501.8 498.8,426.8 "/>
			<text transform="matrix(1 0 0 1 397.989 474.9395)" class="st2 st3 st4">Jamón &amp; Queso</text>
		</g>
	</a>

	<a href="javascript:void(0)">
		<g id='vinos' class='svg-stall-cont'
			img="{{boxes.bar.by_slug['vinos'].fields.page_icon.url}}" text="{{boxes.bar.by_slug['vinos'].fields.hover_text}}"
			type='bar'
			>
			<polygon class="st0" points="370.9,181.4 357.5,168 305.3,168 292,181.4 292,181.4 292,181.4 292,258.9 370.9,258.9 370.9,181.4
				370.9,181.4 "/>
			<text transform="matrix(1 0 0 1 317.9435 218.0414)" class="st2 st3 st4">Vinos</text>
			<g>
				<g>
					<circle class="st2" cx="331.4" cy="188.4" r="13.6"/>
					<g>
						<line class="st9" x1="331.4" y1="191.3" x2="331.4" y2="196.9"/>
					</g>
				</g>
				<path class="st9" d="M336.5,186.2c0,2.8-2.3,5.1-5.1,5.1c-2.8,0-5.1-2.3-5.1-5.1v-5.6h10.1V186.2z"/>
				<line class="st9" x1="328.1" y1="196.9" x2="334.8" y2="196.9"/>
			</g>
		</g>
	</a>

	<a href="javascript:void(0)">
		<g id='la-barra-1' class='svg-stall-cont'
			img="{{boxes.kiosks.by_slug['la-barra-1'].fields.page_icon.url}}" text="{{boxes.kiosks.by_slug['la-barra-1'].fields.hover_text}}"
			type="{% for cat in boxes.kiosks.by_slug['la-barra-1'].categories %}{{cat.slug}} {% endfor %}"
			>
			<polygon class="st0" points="292,356.5 305.3,369.9 357.5,369.9 370.9,356.5 370.9,356.5 370.9,356.5 370.9,279 292,279 292,356.5
				292,356.5 "/>
			<text transform="matrix(1 0 0 1 310.6564 327.7715)" class="st2 st3 st4">La Barra</text>
		</g>
	</a>

	<a href="javascript:void(0)">
		<g id='colmado' class='svg-stall-cont'
			img="{{boxes.shop.by_slug['colmado'].fields.page_icon.url}}" text="{{boxes.shop.by_slug['colmado'].fields.hover_text}}"
			type='shop'
			>
			<polygon class="st0" points="324.4,439.6 258.8,439.6 245.4,453 245.4,453 245.4,501.8 324.4,501.8 "/>
			<text transform="matrix(1 0 0 1 263.214 474.9399)" class="st2 st3 st4">Colmado</text>
		</g>
	</a>

	<a href="javascript:void(0)">
		<g id='bar-celona' class='svg-stall-cont'
			img="{{boxes.bar.by_slug['bar-celona'].fields.page_icon.url}}" text="{{boxes.bar.by_slug['bar-celona'].fields.hover_text}}"
			type='bar'
			>
			<polygon class="st0" points="435.3,538.1 278.1,538.1 264.8,551.5 264.8,551.5 264.8,621.3 435.3,621.3 "/>
			<text transform="matrix(1 0 0 1 322.7952 589.0453)" class="st2 st3 st4">Bar Celona</text>
			<g>
				<circle class="st2" cx="350" cy="558.9" r="13.6"/>
				<g>
					<polygon class="st9" points="343.8,552.3 350,561.8 356.3,552.3 		"/>
					<line class="st9" x1="350" y1="561.8" x2="350" y2="566.5"/>
					<line class="st9" x1="346" y1="566.5" x2="354.1" y2="566.5"/>
				</g>
			</g>
		</g>
	</a>



	<a href="javascript:void(0)">
		<g id='bocatas-empanadas' class='svg-stall-cont'
			img="{{boxes.kiosks.by_slug['bocatas-empanadas'].fields.page_icon.url}}" text="{{boxes.kiosks.by_slug['bocatas-empanadas'].fields.hover_text}}"
			type="{% for cat in boxes.kiosks.by_slug['bocatas-empanadas'].categories %}{{cat.slug}} {% endfor %}"
			>
			<polygon class="st0" points="500.2,202.2 418,202.2 404.6,215.6 404.6,215.6 404.6,275.1 513.5,275.1 513.5,215.6 "/>

			<text transform="matrix(1 0 0 1 433.3824 229.7695)"><tspan x="0" y="0" class="st2 st3 st4">Bocatas &amp;</tspan><tspan x="-2.8" y="13" class="st2 st3 st4">Empanadas</tspan></text>
		</g>
	</a>

	<a href="javascript:void(0)">
		<g id='granja' class='svg-stall-cont'
			img="{{boxes.kiosks.by_slug['granja'].fields.page_icon.url}}" text="{{boxes.kiosks.by_slug['granja'].fields.hover_text}}"
			type="{% for cat in boxes.kiosks.by_slug['granja'].categories %}{{cat.slug}} {% endfor %}"
			>
			<rect x="594.6" y="455.9" class="st0" width="51.8" height="110.8"/>
			<text transform="matrix(1 0 0 1 604.0618 515.4443)" class="st2 st3 st4">Granja</text>
			<g>
				<circle class="st2" cx="620.5" cy="474.6" r="13.6"/>
				<g>
					<g>
						<path class="st9" d="M615,467.8v5.5c0,2.8,2.3,5.1,5.1,5.1s5.1-2.3,5.1-5.1v-5.5H615z"/>
						<line class="st9" x1="615" y1="481.8" x2="625.2" y2="481.8"/>
					</g>
					<path class="st9" d="M625.2,474.6c0.5,0.4,1.1,0.7,1.8,0.7c1.4,0,2.6-1.2,2.6-2.6c0-1.4-1.2-2.6-2.6-2.6c-0.7,0-1.3,0.3-1.8,0.7"
						/>
				</g>
			</g>
		</g>
	</a>

	<a href="javascript:void(0)">
		<g id='kiosko' class='svg-stall-cont'
			img="{{boxes.shop.by_slug['kiosko'].fields.page_icon.url}}" text="{{boxes.shop.by_slug['kiosko'].fields.hover_text}}"
			type='shop'
			>
			<rect x="996.6" y="470.8" class="st0" width="66" height="33.8"/>
			<text transform="matrix(1 0 0 1 1012.7479 492.4392)" class="st2 st3 st4">Kiosko</text>
		</g>
	</a>

	<a href="javascript:void(0)">
		<g id='cocas' class='svg-stall-cont'
			img="{{boxes.kiosks.by_slug['cocas'].fields.page_icon.url}}" text="{{boxes.kiosks.by_slug['cocas'].fields.hover_text}}"
			type="{% for cat in boxes.kiosks.by_slug['cocas'].categories %}{{cat.slug}} {% endfor %}"
			>
			<polygon class="st0" points="550.3,260.3 550.3,260.3 601.5,260.3 601.5,162 550.3,162 "/>
			<text transform="matrix(0 -1 1 0 580.8693 226.472)" class="st2 st3 st4">Cocas</text>
		</g>
	</a>

	<a href="javascript:void(0)">
		<g id='frutas-verduras' class='svg-stall-cont'
			img="{{boxes.kiosks.by_slug['frutas-verduras'].fields.page_icon.url}}" text="{{boxes.kiosks.by_slug['frutas-verduras'].fields.hover_text}}"
			type="{% for cat in boxes.kiosks.by_slug['frutas-verduras'].categories %}{{cat.slug}} {% endfor %}"
			>
			<polygon class="st0" points="500.2,306 500.2,306 404.6,306 404.6,369.5 418,382.9 500.2,382.9 500.2,382.9 513.5,369.5
				513.5,319.3 "/>
			<text transform="matrix(1 0 0 1 437.5475 341.2715)"><tspan x="0" y="0" class="st2 st3 st4">Frutas &amp;</tspan><tspan x="-0.8" y="13" class="st2 st3 st4">Verduras</tspan></text>
		</g>
	</a>




<a href="javascript:void(0)">
	<g id='flores' class='svg-stall-cont'
		img="{{boxes.shop.by_slug['flores'].fields.page_icon.url}}" text="{{boxes.shop.by_slug['flores'].fields.hover_text}}"
		type='shop'
		>
		<rect x="1092.3" y="470.8" class="st0" width="40" height="78.7"/>
		<text transform="matrix(0 -1 1 0 1116.873 525.428)" class="st2 st3 st4">Flores</text>
	</g>
</a>

	<a href="javascript:void(0)">
		<g id='diner-bar' class='svg-stall-cont'
			img="{{boxes.bar.by_slug['diner-bar'].fields.page_icon.url}}" text="{{boxes.bar.by_slug['diner-bar'].fields.hover_text}}"
			type='bar'

			>
			<polygon class="st0" points="966.9,455.9 966.9,504.5 872.1,504.5 872.1,470.1 855.6,470.1 855.6,504.5 708.6,504.5 708.6,455.9 "/>
			<text transform="matrix(1 0 0 1 772.1944 484.9796)" class="st2 st3 st4">Diner Bar</text>
			<g>
				<circle class="st2" cx="737.6" cy="480.7" r="13.6"/>
				<g>
					<polygon class="st9" points="731.3,474.1 737.6,483.6 743.9,474.1 		"/>
					<line class="st9" x1="737.6" y1="483.6" x2="737.6" y2="488.2"/>
					<line class="st9" x1="733.6" y1="488.2" x2="741.7" y2="488.2"/>
				</g>
			</g>
		</g>
	</a>

	<a href="javascript:void(0)">
		<g id='spanish-diner' class='svg-stall-cont'
			img="{{boxes.restaurant.by_slug['spanish-diner'].fields.logo.url}}"
			text="Spanish Diner"
			type='restaurant'
			>
			<rect x="708.6" y="525.4" class="st0" width="258.3" height="85.6"/>
			<text transform="matrix(1 0 0 1 798.0174 571.1172)" class="st2 st3 st4">Spanish Diner </text>
		</g>
	</a>
</g>
<g class='svg-stall-cont' type='empty'>
	<rect x="159.6" y="217.5" class="st0"  style='transition:ease 300ms all;' width="66" height="58.7"/>
</g>

<g id='online-pickup'>
	<rect x="441.9" y="280.5" class="st1" width="70.6" height="7.9"/>
	<text transform="matrix(1 0 0 1 446.9804 287.9591)" class="st2 st5 st6">Online Pickup</text>
</g>







<g>
	<rect x="254.8" y="401.3" class="st1" width="153.3" height="10.1"/>
	<text transform="matrix(1 0 0 1 298.8748 410.6067)" class="st2 st7 st4">Plaza Alta</text>
</g>

<line class="st8" x1="302" y1="258.9" x2="302" y2="279"/>
<line class="st8" x1="360.9" y1="258.9" x2="360.9" y2="279"/>
<line class="st8" x1="550.3" y1="144.5" x2="550.3" y2="162"/>
<polyline class="st8" points="414.6,51.5 110.1,51.5 110.1,168 110.1,168 "/>
<line class="st8" x1="292.9" y1="66" x2="206.1" y2="51.5"/>
<line class="st8" x1="110.1" y1="76.2" x2="292.9" y2="110.6"/>
<polyline class="st8" points="708.6,455.9 708.6,406.4 646.4,406.4 646.4,260.3 601.5,260.3 "/>
<polyline class="st8" points="1132.3,581.1 1132.3,470.8 968.6,470.8 "/>
<polyline class="st8" points="646.4,455.9 646.4,621.3 1086.6,621.3 "/>
<polyline class="st8" points="425.3,621.3 503.6,621.3 503.6,566.7 "/>
<polyline class="st8" points="557.6,566.7 557.6,621.3 646.4,621.3 "/>
<line class="st8" x1="256.3" y1="129.3" x2="256.3" y2="103.7"/>
<line class="st8" x1="256.3" y1="168" x2="256.3" y2="159.6"/>




<g>
	<circle class="st2" cx="530.6" cy="611" r="13.6"/>
	<g>
		<polyline class="st9" points="525.8,609 530.6,604.1 535.4,609 		"/>
		<line class="st9" x1="530.6" y1="604.1" x2="530.6" y2="618"/>
	</g>
</g>
<g>

		<ellipse transform="matrix(0.7071 -0.7071 0.7071 0.7071 -100.2901 964.3353)" class="st2" cx="1113.9" cy="603.2" rx="13.6" ry="13.6"/>
	<g>
		<polyline class="st9" points="1109,605.2 1109,598.4 1115.8,598.4 		"/>
		<line class="st9" x1="1109" y1="598.4" x2="1118.8" y2="608.1"/>
	</g>
</g>
<g>

		<ellipse transform="matrix(0.1903 -0.9817 0.9817 0.1903 143.8375 348.6785)" class="st2" cx="283.3" cy="87.1" rx="13.6" ry="13.6"/>
	<g>
		<polyline class="st9" points="286.3,82.8 290.1,88.4 284.4,92.3 		"/>
		<line class="st9" x1="290.1" y1="88.4" x2="276.5" y2="85.8"/>
	</g>
</g>
<g>
	<circle class="st2" cx="181.8" cy="127.3" r="13.6"/>
	<g>
		<rect x="164.3" y="123.7" class="st1" width="35" height="11.2"/>
		<text transform="matrix(1 0 0 1 171.4783 131.6785)" class="st10 st7 st11">WC</text>
	</g>
</g>

<polyline class="st8" points="212,687.7 264.8,687.7 264.8,621.3 "/>

<g>
	<circle class="st2" cx="624.9" cy="330.1" r="13.6"/>
</g>



<path class="st9" d="M621,326.8c-2.2,0.8-3.8,2.9-3.8,5.4c0,3.2,2.6,5.7,5.7,5.7c2,0,3.8-1.1,4.9-2.7"/>
<polyline class="st9" points="624.6,324.7 624.6,331.4 630,331.4 631.9,335.9 634.1,335.9 "/>
<circle class="st10" cx="624.6" cy="320.8" r="1.9"/>



<line class="st8" x1="120.9" y1="276.2" x2="120.9" y2="393.6"/>


<line class="st8" x1="855.6" y1="455.9" x2="872.1" y2="455.9"/>

<polyline class="st8" points="440.9,275.1 440.9,294.9 513.5,294.9 513.5,275.1 "/>
<g>
	<g>
		<circle class="st2" cx="351.1" cy="51.5" r="13.6"/>
		<g>
			<polyline class="st9" points="348.5,43.4 351.1,40.8 353.7,43.4 			"/>
		</g>
	</g>
	<g>
		<g>
			<polyline class="st9" points="353.7,59.6 351.1,62.2 348.5,59.6 			"/>
		</g>
	</g>
	<g>
		<rect x="345.7" y="47.9" class="st9" width="10.8" height="7.3"/>
		<line class="st9" x1="351.1" y1="47.9" x2="351.1" y2="55.2"/>
	</g>
</g>
<g>
	<circle class="st2" cx="456.7" cy="137.7" r="13.6"/>
	<g>
		<g>
			<line class="st9" x1="452.1" y1="138.6" x2="452.1" y2="142.4"/>
		</g>
		<g>
			<line class="st9" x1="456.7" y1="135.1" x2="456.7" y2="142.4"/>
		</g>
		<g>
			<line class="st9" x1="447.9" y1="133" x2="447.9" y2="142.4"/>
		</g>
		<line class="st9" x1="447.9" y1="138.6" x2="452.1" y2="138.6"/>
		<g>
			<line class="st9" x1="461.2" y1="138.6" x2="461.2" y2="142.4"/>
		</g>
		<g>
			<line class="st9" x1="465.4" y1="133" x2="465.4" y2="142.4"/>
		</g>
		<line class="st9" x1="465.4" y1="138.6" x2="461.2" y2="138.6"/>
		<line class="st9" x1="452.9" y1="135.1" x2="460.5" y2="135.1"/>
	</g>
</g>
<g>
	<circle class="st2" cx="470.3" cy="584.6" r="13.6"/>
	<g>
		<g>
			<line class="st9" x1="465.8" y1="585.6" x2="465.8" y2="589.4"/>
		</g>
		<g>
			<line class="st9" x1="470.3" y1="582" x2="470.3" y2="589.4"/>
		</g>
		<g>
			<line class="st9" x1="461.6" y1="579.9" x2="461.6" y2="589.4"/>
		</g>
		<line class="st9" x1="461.6" y1="585.6" x2="465.8" y2="585.6"/>
		<g>
			<line class="st9" x1="474.9" y1="585.6" x2="474.9" y2="589.4"/>
		</g>
		<g>
			<line class="st9" x1="479.1" y1="579.9" x2="479.1" y2="589.4"/>
		</g>
		<line class="st9" x1="479.1" y1="585.6" x2="474.9" y2="585.6"/>
		<line class="st9" x1="466.6" y1="582" x2="474.1" y2="582"/>
	</g>
</g>
<g>
	<circle class="st2" cx="265.7" cy="406.4" r="13.6"/>
	<g>
		<g>
			<line class="st9" x1="261.1" y1="407.3" x2="261.1" y2="411.1"/>
		</g>
		<g>
			<line class="st9" x1="265.7" y1="403.7" x2="265.7" y2="411.1"/>
		</g>
		<g>
			<line class="st9" x1="256.9" y1="401.6" x2="256.9" y2="411.1"/>
		</g>
		<line class="st9" x1="256.9" y1="407.3" x2="261.1" y2="407.3"/>
		<g>
			<line class="st9" x1="270.2" y1="407.3" x2="270.2" y2="411.1"/>
		</g>
		<g>
			<line class="st9" x1="274.4" y1="401.6" x2="274.4" y2="411.1"/>
		</g>
		<line class="st9" x1="274.4" y1="407.3" x2="270.2" y2="407.3"/>
		<line class="st9" x1="261.9" y1="403.7" x2="269.5" y2="403.7"/>
	</g>
</g>

</svg>
